<mxfile host="app.diagrams.net" modified="2023-04-04T04:07:17.492Z" agent="Mozilla/5.0 (Windows NT 10.0; Win64; x64) AppleWebKit/537.36 (KHTML, like Gecko) Chrome/111.0.0.0 Safari/537.36" etag="_vlYyP7WkcOUU0aCk3E6" version="21.1.4" type="device" pages="4">
  <diagram name="Página-1" id="mwUivpbFfpa2kCFsE4Rk">
    <mxGraphModel dx="1707" dy="1645" grid="1" gridSize="10" guides="1" tooltips="1" connect="1" arrows="1" fold="1" page="1" pageScale="1" pageWidth="827" pageHeight="1169" math="0" shadow="0">
      <root>
        <mxCell id="0" />
        <mxCell id="1" parent="0" />
        <mxCell id="JaLD4KdQ6iYtdnGhWjip-6" style="edgeStyle=orthogonalEdgeStyle;rounded=0;orthogonalLoop=1;jettySize=auto;html=1;" parent="1" source="5MoGgd4xs2YSn1FeENyw-1" target="5MoGgd4xs2YSn1FeENyw-16" edge="1">
          <mxGeometry relative="1" as="geometry" />
        </mxCell>
        <object placeholders="1" c4Name="Técnico de Manutenção" c4Type="Persona" c4Description="Preenchimento e execução a manutenção no Cliente" label="&lt;font style=&quot;font-size: 15px;&quot;&gt;&lt;b style=&quot;font-size: 15px;&quot;&gt;%c4Name%&lt;/b&gt;&lt;/font&gt;&lt;div style=&quot;font-size: 15px;&quot;&gt;[%c4Type%]&lt;/div&gt;&lt;br style=&quot;font-size: 15px;&quot;&gt;&lt;div style=&quot;font-size: 15px;&quot;&gt;&lt;font style=&quot;font-size: 15px;&quot;&gt;&lt;font color=&quot;#cccccc&quot; style=&quot;font-size: 15px;&quot;&gt;%c4Description%&lt;/font&gt;&lt;/font&gt;&lt;/div&gt;" id="5MoGgd4xs2YSn1FeENyw-1">
          <mxCell style="html=1;fontSize=15;dashed=0;whiteSpace=wrap;fillColor=#0050ef;strokeColor=#001DBC;fontColor=#ffffff;shape=mxgraph.c4.person2;align=center;metaEdit=1;points=[[0.5,0,0],[1,0.5,0],[1,0.75,0],[0.75,1,0],[0.5,1,0],[0.25,1,0],[0,0.75,0],[0,0.5,0]];resizable=0;" parent="1" vertex="1">
            <mxGeometry x="530" y="-130" width="200" height="180" as="geometry" />
          </mxCell>
        </object>
        <mxCell id="JaLD4KdQ6iYtdnGhWjip-19" style="edgeStyle=orthogonalEdgeStyle;rounded=0;orthogonalLoop=1;jettySize=auto;html=1;" parent="1" source="5MoGgd4xs2YSn1FeENyw-16" target="5MoGgd4xs2YSn1FeENyw-23" edge="1">
          <mxGeometry relative="1" as="geometry">
            <Array as="points">
              <mxPoint x="630" y="550" />
              <mxPoint x="-460" y="550" />
            </Array>
          </mxGeometry>
        </mxCell>
        <mxCell id="JaLD4KdQ6iYtdnGhWjip-25" value="DISPONIBILZA&amp;nbsp; RELATORIO FINALIZADO" style="edgeLabel;html=1;align=center;verticalAlign=middle;resizable=0;points=[];fontStyle=1;fontSize=16;" parent="JaLD4KdQ6iYtdnGhWjip-19" vertex="1" connectable="0">
          <mxGeometry x="-0.4523" y="1" relative="1" as="geometry">
            <mxPoint x="-22" y="-21" as="offset" />
          </mxGeometry>
        </mxCell>
        <object placeholders="1" c4Name="Ordem de Serviço" c4Type="Modulo Sistema" c4Description="Preenchimento do relatório em campo" label="&lt;font style=&quot;font-size: 20px;&quot;&gt;&lt;b style=&quot;font-size: 20px;&quot;&gt;%c4Name%&lt;/b&gt;&lt;/font&gt;&lt;div style=&quot;font-size: 20px;&quot;&gt;[%c4Type%]&lt;/div&gt;&lt;br style=&quot;font-size: 20px;&quot;&gt;&lt;div style=&quot;font-size: 20px;&quot;&gt;&lt;font style=&quot;font-size: 20px;&quot;&gt;&lt;font color=&quot;#cccccc&quot; style=&quot;font-size: 20px;&quot;&gt;%c4Description%&lt;/font&gt;&lt;/font&gt;&lt;/div&gt;" id="5MoGgd4xs2YSn1FeENyw-16">
          <mxCell style="rounded=1;whiteSpace=wrap;html=1;labelBackgroundColor=none;fillColor=#0050ef;fontColor=#ffffff;align=center;arcSize=8;strokeColor=#001DBC;metaEdit=1;resizable=0;points=[[0.25,0,0],[0.5,0,0],[0.75,0,0],[1,0.25,0],[1,0.5,0],[1,0.75,0],[0.75,1,0],[0.5,1,0],[0.25,1,0],[0,0.75,0],[0,0.5,0],[0,0.25,0]];fontSize=20;" parent="1" vertex="1">
            <mxGeometry x="510" y="350" width="240" height="120" as="geometry" />
          </mxCell>
        </object>
        <object placeholders="1" c4Name="Sistema de gestão de manutenção e controle de documentação" c4Type="SystemScopeBoundary" c4Application="Software System" label="&lt;font style=&quot;font-size: 16px&quot;&gt;&lt;b&gt;&lt;div style=&quot;text-align: left&quot;&gt;%c4Name%&lt;/div&gt;&lt;/b&gt;&lt;/font&gt;&lt;div style=&quot;text-align: left&quot;&gt;[%c4Application%]&lt;/div&gt;" id="5MoGgd4xs2YSn1FeENyw-18">
          <mxCell style="rounded=1;fontSize=11;whiteSpace=wrap;html=1;arcSize=20;fillColor=none;strokeColor=#666666;fontColor=#333333;labelBackgroundColor=none;align=left;verticalAlign=bottom;labelBorderColor=none;spacingTop=0;spacing=10;metaEdit=1;rotatable=0;perimeter=rectanglePerimeter;noLabel=0;labelPadding=0;allowArrows=0;connectable=0;expand=0;recursiveResize=0;editable=1;pointerEvents=0;absoluteArcSize=1;points=[[0.25,0,0],[0.5,0,0],[0.75,0,0],[1,0.25,0],[1,0.5,0],[1,0.75,0],[0.75,1,0],[0.5,1,0],[0.25,1,0],[0,0.75,0],[0,0.5,0],[0,0.25,0]];" parent="1" vertex="1">
            <mxGeometry x="-690" y="-155" width="1534" height="940" as="geometry" />
          </mxCell>
        </object>
        <mxCell id="uzcyktZ3pIyVuisJM-R0-2" style="edgeStyle=orthogonalEdgeStyle;rounded=0;orthogonalLoop=1;jettySize=auto;html=1;entryX=0.5;entryY=0;entryDx=0;entryDy=0;entryPerimeter=0;" parent="1" source="5MoGgd4xs2YSn1FeENyw-20" target="JaLD4KdQ6iYtdnGhWjip-9" edge="1">
          <mxGeometry relative="1" as="geometry">
            <Array as="points" />
          </mxGeometry>
        </mxCell>
        <object placeholders="1" c4Name="Analista" c4Type="Persona" c4Description="Analista Planejamento Operacional - Assistência Técnica" label="&lt;font style=&quot;font-size: 15px;&quot;&gt;&lt;b style=&quot;font-size: 15px;&quot;&gt;%c4Name%&lt;/b&gt;&lt;/font&gt;&lt;div style=&quot;font-size: 15px;&quot;&gt;[%c4Type%]&lt;/div&gt;&lt;br style=&quot;font-size: 15px;&quot;&gt;&lt;div style=&quot;font-size: 15px;&quot;&gt;&lt;font style=&quot;font-size: 15px;&quot;&gt;&lt;font color=&quot;#cccccc&quot; style=&quot;font-size: 15px;&quot;&gt;%c4Description%&lt;/font&gt;&lt;/font&gt;&lt;/div&gt;" id="5MoGgd4xs2YSn1FeENyw-20">
          <mxCell style="html=1;fontSize=15;dashed=0;whiteSpace=wrap;fillColor=#0050ef;strokeColor=#001DBC;fontColor=#ffffff;shape=mxgraph.c4.person2;align=center;metaEdit=1;points=[[0.5,0,0],[1,0.5,0],[1,0.75,0],[0.75,1,0],[0.5,1,0],[0.25,1,0],[0,0.75,0],[0,0.5,0]];resizable=0;fontFamily=Verdana;" parent="1" vertex="1">
            <mxGeometry x="-10" y="-130" width="200" height="180" as="geometry" />
          </mxCell>
        </object>
        <mxCell id="JaLD4KdQ6iYtdnGhWjip-11" style="edgeStyle=orthogonalEdgeStyle;rounded=0;orthogonalLoop=1;jettySize=auto;html=1;entryX=0;entryY=0.5;entryDx=0;entryDy=0;entryPerimeter=0;" parent="1" source="5MoGgd4xs2YSn1FeENyw-23" target="JaLD4KdQ6iYtdnGhWjip-9" edge="1">
          <mxGeometry relative="1" as="geometry" />
        </mxCell>
        <mxCell id="JaLD4KdQ6iYtdnGhWjip-14" value="DISPONIBILIZA FILA DE O.S. P/ AGENDA" style="edgeLabel;html=1;align=center;verticalAlign=middle;resizable=0;points=[];fontStyle=1;fontSize=14;" parent="JaLD4KdQ6iYtdnGhWjip-11" vertex="1" connectable="0">
          <mxGeometry x="-0.3562" y="5" relative="1" as="geometry">
            <mxPoint x="60" y="-15" as="offset" />
          </mxGeometry>
        </mxCell>
        <object placeholders="1" c4Name="Portal de Chamados" c4Type="Modulo Sistema" c4Description="Consulta Status, Solicita Ordem de Serviço" label="&lt;font style=&quot;font-size: 20px;&quot;&gt;&lt;b style=&quot;font-size: 20px;&quot;&gt;%c4Name%&lt;/b&gt;&lt;/font&gt;&lt;div style=&quot;font-size: 20px;&quot;&gt;[%c4Type%]&lt;/div&gt;&lt;br style=&quot;font-size: 20px;&quot;&gt;&lt;div style=&quot;font-size: 20px;&quot;&gt;&lt;font style=&quot;font-size: 20px;&quot;&gt;&lt;font color=&quot;#cccccc&quot; style=&quot;font-size: 20px;&quot;&gt;%c4Description%&lt;/font&gt;&lt;/font&gt;&lt;/div&gt;" id="5MoGgd4xs2YSn1FeENyw-23">
          <mxCell style="rounded=1;whiteSpace=wrap;html=1;labelBackgroundColor=none;fillColor=#0050ef;fontColor=#ffffff;align=center;arcSize=15;strokeColor=#001DBC;metaEdit=1;resizable=0;points=[[0.25,0,0],[0.5,0,0],[0.75,0,0],[1,0.25,0],[1,0.5,0],[1,0.75,0],[0.75,1,0],[0.5,1,0],[0.25,1,0],[0,0.75,0],[0,0.5,0],[0,0.25,0]];shadow=0;glass=0;labelBorderColor=none;fontSize=20;fillStyle=auto;verticalAlign=middle;labelPosition=center;verticalLabelPosition=middle;" parent="1" vertex="1">
            <mxGeometry x="-580" y="350" width="240" height="120" as="geometry" />
          </mxCell>
        </object>
        <mxCell id="JaLD4KdQ6iYtdnGhWjip-8" style="edgeStyle=orthogonalEdgeStyle;rounded=0;orthogonalLoop=1;jettySize=auto;html=1;" parent="1" source="5MoGgd4xs2YSn1FeENyw-27" target="5MoGgd4xs2YSn1FeENyw-23" edge="1">
          <mxGeometry relative="1" as="geometry">
            <mxPoint x="-420" y="350" as="targetPoint" />
            <Array as="points" />
          </mxGeometry>
        </mxCell>
        <mxCell id="JaLD4KdQ6iYtdnGhWjip-10" value="Consulta e Solicita Ordem de Serviiço" style="edgeLabel;html=1;align=center;verticalAlign=middle;resizable=0;points=[];fontSize=19;fontStyle=1" parent="JaLD4KdQ6iYtdnGhWjip-8" vertex="1" connectable="0">
          <mxGeometry x="-0.3601" y="2" relative="1" as="geometry">
            <mxPoint x="8" y="150" as="offset" />
          </mxGeometry>
        </mxCell>
        <object placeholders="1" c4Name="Cliente" c4Type="Persona" c4Description="Cliente Assistência técnica " label="&lt;font style=&quot;font-size: 18px;&quot;&gt;&lt;span style=&quot;font-size: 18px;&quot;&gt;%c4Name%&lt;/span&gt;&lt;/font&gt;&lt;div style=&quot;font-size: 18px;&quot;&gt;[%c4Type%]&lt;/div&gt;&lt;br style=&quot;font-size: 18px;&quot;&gt;&lt;div style=&quot;font-size: 18px;&quot;&gt;&lt;font style=&quot;font-size: 18px;&quot;&gt;&lt;font color=&quot;#cccccc&quot; style=&quot;font-size: 18px;&quot;&gt;%c4Description%&lt;/font&gt;&lt;/font&gt;&lt;/div&gt;" id="5MoGgd4xs2YSn1FeENyw-27">
          <mxCell style="html=1;fontSize=18;dashed=0;whiteSpace=wrap;fillColor=#0050ef;strokeColor=#001DBC;fontColor=#ffffff;shape=mxgraph.c4.person2;align=center;metaEdit=1;points=[[0.5,0,0],[1,0.5,0],[1,0.75,0],[0.75,1,0],[0.5,1,0],[0.25,1,0],[0,0.75,0],[0,0.5,0]];resizable=0;rounded=1;shadow=0;glass=0;labelBackgroundColor=none;labelBorderColor=none;fillStyle=auto;fontFamily=Verdana;fontStyle=0" parent="1" vertex="1">
            <mxGeometry x="-560" y="-155" width="200" height="180" as="geometry" />
          </mxCell>
        </object>
        <mxCell id="JaLD4KdQ6iYtdnGhWjip-4" value="Inclui, Consulta, Altera Ordem de Serviço&lt;br style=&quot;font-size: 18px;&quot;&gt;e organiza a agenda técnica conforme necessidade" style="edgeLabel;html=1;align=center;verticalAlign=middle;resizable=0;points=[];fontSize=18;fontStyle=1;rotation=0;" parent="1" vertex="1" connectable="0">
          <mxGeometry x="99.99692307692311" y="150.00000000000023" as="geometry" />
        </mxCell>
        <mxCell id="JaLD4KdQ6iYtdnGhWjip-13" style="edgeStyle=orthogonalEdgeStyle;rounded=0;orthogonalLoop=1;jettySize=auto;html=1;exitX=1;exitY=0.5;exitDx=0;exitDy=0;exitPerimeter=0;entryX=0;entryY=0.5;entryDx=0;entryDy=0;entryPerimeter=0;" parent="1" source="JaLD4KdQ6iYtdnGhWjip-9" target="5MoGgd4xs2YSn1FeENyw-16" edge="1">
          <mxGeometry relative="1" as="geometry" />
        </mxCell>
        <mxCell id="GxoMasn7jpsKuSULctb4-2" style="edgeStyle=orthogonalEdgeStyle;rounded=0;orthogonalLoop=1;jettySize=auto;html=1;exitX=0.75;exitY=1;exitDx=0;exitDy=0;exitPerimeter=0;entryX=0.75;entryY=0;entryDx=0;entryDy=0;entryPerimeter=0;" parent="1" source="JaLD4KdQ6iYtdnGhWjip-9" target="GxoMasn7jpsKuSULctb4-1" edge="1">
          <mxGeometry relative="1" as="geometry" />
        </mxCell>
        <object placeholders="1" c4Name="Agenda Técnica" c4Type="Modulo Sistema" c4Description="Consulta, Solicita, Altera e Inclui Ordem de Serviço" label="&lt;font style=&quot;font-size: 20px;&quot;&gt;&lt;b style=&quot;font-size: 20px;&quot;&gt;%c4Name%&lt;/b&gt;&lt;/font&gt;&lt;div style=&quot;font-size: 20px;&quot;&gt;[%c4Type%]&lt;/div&gt;&lt;br style=&quot;font-size: 20px;&quot;&gt;&lt;div style=&quot;font-size: 20px;&quot;&gt;&lt;font style=&quot;font-size: 20px;&quot;&gt;&lt;font color=&quot;#cccccc&quot; style=&quot;font-size: 20px;&quot;&gt;%c4Description%&lt;/font&gt;&lt;/font&gt;&lt;/div&gt;" id="JaLD4KdQ6iYtdnGhWjip-9">
          <mxCell style="rounded=1;whiteSpace=wrap;html=1;labelBackgroundColor=none;fillColor=#0050ef;fontColor=#ffffff;align=center;arcSize=19;strokeColor=#001DBC;metaEdit=1;resizable=0;points=[[0.25,0,0],[0.5,0,0],[0.75,0,0],[1,0.25,0],[1,0.5,0],[1,0.75,0],[0.75,1,0],[0.5,1,0],[0.25,1,0],[0,0.75,0],[0,0.5,0],[0,0.25,0]];shadow=0;glass=0;labelBorderColor=none;fontSize=20;fillStyle=auto;verticalAlign=middle;labelPosition=center;verticalLabelPosition=middle;" parent="1" vertex="1">
            <mxGeometry x="-30" y="350" width="240" height="120" as="geometry" />
          </mxCell>
        </object>
        <mxCell id="JaLD4KdQ6iYtdnGhWjip-16" value="INCLUI OS. P/ TÉCNICO DISPONIVEL" style="text;html=1;align=center;verticalAlign=middle;resizable=0;points=[];autosize=1;strokeColor=none;fillColor=none;fontStyle=1;fontSize=15;" parent="1" vertex="1">
          <mxGeometry x="220" y="375" width="290" height="30" as="geometry" />
        </mxCell>
        <mxCell id="JaLD4KdQ6iYtdnGhWjip-18" value="Preenche e finaliza relatório" style="text;html=1;align=center;verticalAlign=middle;resizable=0;points=[];autosize=1;strokeColor=none;fillColor=none;fontSize=20;fontStyle=1" parent="1" vertex="1">
          <mxGeometry x="480" y="140" width="290" height="40" as="geometry" />
        </mxCell>
        <object placeholders="1" c4Type="Relationship" id="JaLD4KdQ6iYtdnGhWjip-24">
          <mxCell style="endArrow=blockThin;html=1;fontSize=10;fontColor=#404040;strokeWidth=1;endFill=1;strokeColor=#828282;elbow=vertical;metaEdit=1;endSize=14;startSize=14;jumpStyle=arc;jumpSize=16;rounded=0;edgeStyle=orthogonalEdgeStyle;entryX=0.5;entryY=1;entryDx=0;entryDy=0;entryPerimeter=0;" parent="1" target="JaLD4KdQ6iYtdnGhWjip-9" edge="1">
            <mxGeometry width="240" relative="1" as="geometry">
              <mxPoint x="90" y="510" as="sourcePoint" />
              <mxPoint x="570" y="450" as="targetPoint" />
              <Array as="points">
                <mxPoint x="90" y="550" />
                <mxPoint x="90" y="550" />
              </Array>
            </mxGeometry>
          </mxCell>
        </object>
        <object placeholders="1" c4Name="Usuário" c4Type="Modulo Sistema" c4Description="Cadastro, Login e Autenticação" label="&lt;font style=&quot;font-size: 20px;&quot;&gt;&lt;b style=&quot;font-size: 20px;&quot;&gt;%c4Name%&lt;/b&gt;&lt;/font&gt;&lt;div style=&quot;font-size: 20px;&quot;&gt;[%c4Type%]&lt;/div&gt;&lt;br style=&quot;font-size: 20px;&quot;&gt;&lt;div style=&quot;font-size: 20px;&quot;&gt;&lt;font style=&quot;font-size: 20px;&quot;&gt;&lt;font color=&quot;#cccccc&quot; style=&quot;font-size: 20px;&quot;&gt;%c4Description%&lt;/font&gt;&lt;/font&gt;&lt;/div&gt;" id="JaLD4KdQ6iYtdnGhWjip-26">
          <mxCell style="rounded=1;whiteSpace=wrap;html=1;labelBackgroundColor=none;fillColor=#0050ef;fontColor=#ffffff;align=center;arcSize=50;strokeColor=#001DBC;metaEdit=1;resizable=0;points=[[0.25,0,0],[0.5,0,0],[0.75,0,0],[1,0.25,0],[1,0.5,0],[1,0.75,0],[0.75,1,0],[0.5,1,0],[0.25,1,0],[0,0.75,0],[0,0.5,0],[0,0.25,0]];shadow=0;glass=0;labelBorderColor=none;fontSize=20;fillStyle=auto;verticalAlign=middle;labelPosition=center;verticalLabelPosition=middle;" parent="1" vertex="1">
            <mxGeometry x="-580" y="90" width="240" height="120" as="geometry" />
          </mxCell>
        </object>
        <object placeholders="1" c4Type="Relationship" id="JaLD4KdQ6iYtdnGhWjip-28">
          <mxCell style="endArrow=blockThin;html=1;fontSize=10;fontColor=#404040;strokeWidth=1;endFill=1;strokeColor=#828282;elbow=vertical;metaEdit=1;endSize=14;startSize=14;jumpStyle=arc;jumpSize=16;rounded=0;entryX=1;entryY=0.5;entryDx=0;entryDy=0;entryPerimeter=0;" parent="1" source="5MoGgd4xs2YSn1FeENyw-20" target="JaLD4KdQ6iYtdnGhWjip-26" edge="1">
            <mxGeometry width="240" relative="1" as="geometry">
              <mxPoint x="-350" y="210" as="sourcePoint" />
              <mxPoint x="-110" y="210" as="targetPoint" />
            </mxGeometry>
          </mxCell>
        </object>
        <mxCell id="JaLD4KdQ6iYtdnGhWjip-29" value="&lt;font style=&quot;font-size: 18px;&quot;&gt;Gerencia perfil de Usuário&lt;/font&gt;" style="text;html=1;align=center;verticalAlign=middle;resizable=0;points=[];autosize=1;strokeColor=none;fillColor=none;" parent="1" vertex="1">
          <mxGeometry x="-300" y="40" width="230" height="40" as="geometry" />
        </mxCell>
        <object placeholders="1" c4Name="API Geolocalização" c4Type="Software Externo" c4Description="Funções de Trajeto e Geolocalização" label="&lt;font style=&quot;font-size: 18px;&quot;&gt;&lt;b style=&quot;font-size: 18px;&quot;&gt;%c4Name%&lt;/b&gt;&lt;/font&gt;&lt;div style=&quot;font-size: 18px;&quot;&gt;[%c4Type%]&lt;/div&gt;&lt;br style=&quot;font-size: 18px;&quot;&gt;&lt;div style=&quot;font-size: 18px;&quot;&gt;&lt;font style=&quot;font-size: 18px;&quot;&gt;&lt;font color=&quot;#cccccc&quot; style=&quot;font-size: 18px;&quot;&gt;%c4Description%&lt;/font&gt;&lt;/font&gt;&lt;/div&gt;" id="GxoMasn7jpsKuSULctb4-1">
          <mxCell style="rounded=1;whiteSpace=wrap;html=1;labelBackgroundColor=none;fillColor=#8C8496;fontColor=#ffffff;align=center;arcSize=10;strokeColor=#736782;metaEdit=1;resizable=0;points=[[0.25,0,0],[0.5,0,0],[0.75,0,0],[1,0.25,0],[1,0.5,0],[1,0.75,0],[0.75,1,0],[0.5,1,0],[0.25,1,0],[0,0.75,0],[0,0.5,0],[0,0.25,0]];fontFamily=Verdana;fontSize=18;" parent="1" vertex="1">
            <mxGeometry x="-30" y="810" width="240" height="120" as="geometry" />
          </mxCell>
        </object>
      </root>
    </mxGraphModel>
  </diagram>
  <diagram id="dpY_NNMAqrPsYOXqK_Ri" name="Contêiner">
    <mxGraphModel dx="1257" dy="1507" grid="1" gridSize="10" guides="1" tooltips="1" connect="1" arrows="1" fold="1" page="1" pageScale="1" pageWidth="1169" pageHeight="827" math="0" shadow="0">
      <root>
        <mxCell id="0" />
        <mxCell id="1" parent="0" />
        <object placeholders="1" c4Type="Container name" c4Container="Container" c4Technology="MySQL" c4Description="Armazenamento dos registros dos usuários e OS´s." label="&lt;font style=&quot;font-size: 16px&quot;&gt;&lt;b&gt;%c4Type%&lt;/b&gt;&lt;/font&gt;&lt;div&gt;[%c4Container%:&amp;nbsp;%c4Technology%]&lt;/div&gt;&lt;br&gt;&lt;div&gt;&lt;font style=&quot;font-size: 11px&quot;&gt;&lt;font color=&quot;#E6E6E6&quot;&gt;%c4Description%&lt;/font&gt;&lt;/div&gt;" id="MBtAxdayAQe8jduiBed7-2">
          <mxCell style="shape=cylinder3;size=15;whiteSpace=wrap;html=1;boundedLbl=1;rounded=0;labelBackgroundColor=none;fillColor=#23A2D9;fontSize=12;fontColor=#ffffff;align=center;strokeColor=#0E7DAD;metaEdit=1;points=[[0.5,0,0],[1,0.25,0],[1,0.5,0],[1,0.75,0],[0.5,1,0],[0,0.75,0],[0,0.5,0],[0,0.25,0]];resizable=0;" parent="1" vertex="1">
            <mxGeometry x="310" y="930" width="240" height="120" as="geometry" />
          </mxCell>
        </object>
        <mxCell id="9updrbojXEWRgpuSJQtc-13" style="edgeStyle=orthogonalEdgeStyle;rounded=0;orthogonalLoop=1;jettySize=auto;html=1;fontFamily=Helvetica;fontSize=11;fontColor=#ffffff;" parent="1" source="9updrbojXEWRgpuSJQtc-1" target="9updrbojXEWRgpuSJQtc-6" edge="1">
          <mxGeometry relative="1" as="geometry" />
        </mxCell>
        <mxCell id="1NbD-LZ5WNQoty72f_LN-7" value="&lt;font color=&quot;#030303&quot;&gt;Inserção de O.S. na agenda, Extrair relatórios&amp;nbsp;&lt;br&gt;Cadastro (Cliente, Usuário, Equipamento)&lt;br&gt;Recebimento&amp;nbsp;de chamados&lt;br&gt;&lt;/font&gt;" style="edgeLabel;html=1;align=center;verticalAlign=middle;resizable=0;points=[];fontSize=11;fontFamily=Helvetica;fontColor=#ffffff;fontStyle=1" parent="9updrbojXEWRgpuSJQtc-13" vertex="1" connectable="0">
          <mxGeometry x="-0.1196" y="-10" relative="1" as="geometry">
            <mxPoint x="-30" y="20" as="offset" />
          </mxGeometry>
        </mxCell>
        <object placeholders="1" c4Name="Analista" c4Type="Persona" c4Description="Manipula agenda técnica.&#xa;Recebe Chamados&#xa;Extrai Relatório&#xa;Cadastra Usuário&#xa;Cadastra Cliente&#xa;Cadastra equipamento" label="&lt;font style=&quot;font-size: 16px&quot;&gt;&lt;b&gt;%c4Name%&lt;/b&gt;&lt;/font&gt;&lt;div&gt;[%c4Type%]&lt;/div&gt;&lt;br&gt;&lt;div&gt;&lt;font style=&quot;font-size: 11px&quot;&gt;&lt;font color=&quot;#cccccc&quot;&gt;%c4Description%&lt;/font&gt;&lt;/div&gt;" id="9updrbojXEWRgpuSJQtc-1">
          <mxCell style="html=1;fontSize=11;dashed=0;whiteSpace=wrap;fillColor=#083F75;strokeColor=#06315C;fontColor=#ffffff;shape=mxgraph.c4.person2;align=center;metaEdit=1;points=[[0.5,0,0],[1,0.5,0],[1,0.75,0],[0.75,1,0],[0.5,1,0],[0.25,1,0],[0,0.75,0],[0,0.5,0]];resizable=0;expand=1;rotation=0;shadow=0;verticalAlign=bottom;" parent="1" vertex="1">
            <mxGeometry x="220" y="240" width="200" height="180" relative="1" as="geometry">
              <mxPoint x="880" y="-40" as="offset" />
            </mxGeometry>
          </mxCell>
        </object>
        <object placeholders="1" c4Name="Kontrola" c4Type="SystemScopeBoundary" c4Application="Sistema de Gerencimento de O.S." label="&lt;font style=&quot;font-size: 16px&quot;&gt;&lt;b&gt;&lt;div style=&quot;text-align: left&quot;&gt;%c4Name%&lt;/div&gt;&lt;/b&gt;&lt;/font&gt;&lt;div style=&quot;text-align: left&quot;&gt;[%c4Application%]&lt;/div&gt;" id="9updrbojXEWRgpuSJQtc-2">
          <mxCell style="rounded=1;fontSize=11;whiteSpace=wrap;html=1;dashed=1;arcSize=20;fillColor=none;strokeColor=#666666;fontColor=#333333;labelBackgroundColor=none;align=left;verticalAlign=bottom;labelBorderColor=none;spacingTop=0;spacing=10;dashPattern=8 4;metaEdit=1;rotatable=0;perimeter=rectanglePerimeter;noLabel=0;labelPadding=0;allowArrows=0;connectable=0;expand=0;recursiveResize=0;editable=1;pointerEvents=0;absoluteArcSize=1;points=[[0.25,0,0],[0.5,0,0],[0.75,0,0],[1,0.25,0],[1,0.5,0],[1,0.75,0],[0.75,1,0],[0.5,1,0],[0.25,1,0],[0,0.75,0],[0,0.5,0],[0,0.25,0]];shadow=0;fontFamily=Helvetica;" parent="1" vertex="1">
            <mxGeometry x="110" y="240" width="1560" height="860" as="geometry" />
          </mxCell>
        </object>
        <mxCell id="9updrbojXEWRgpuSJQtc-21" style="rounded=0;orthogonalLoop=1;jettySize=auto;html=1;entryX=0.592;entryY=-0.012;entryDx=0;entryDy=0;entryPerimeter=0;fontFamily=Verdana;fontSize=13;fontColor=#ffffff;elbow=vertical;" parent="1" source="9updrbojXEWRgpuSJQtc-3" target="9updrbojXEWRgpuSJQtc-5" edge="1">
          <mxGeometry relative="1" as="geometry" />
        </mxCell>
        <mxCell id="1NbD-LZ5WNQoty72f_LN-12" value="&lt;font color=&quot;#0d0d0d&quot; style=&quot;font-size: 12px;&quot;&gt;Requisita chamados.&amp;nbsp;&lt;br style=&quot;font-size: 12px;&quot;&gt;Extrai relatório.&lt;br style=&quot;font-size: 12px;&quot;&gt;Acompanha&amp;nbsp;O.S.&lt;br style=&quot;font-size: 12px;&quot;&gt;&lt;/font&gt;" style="edgeLabel;html=1;align=center;verticalAlign=middle;resizable=0;points=[];fontSize=12;fontFamily=Helvetica;fontColor=#ffffff;fontStyle=1" parent="9updrbojXEWRgpuSJQtc-21" vertex="1" connectable="0">
          <mxGeometry x="0.1968" y="-3" relative="1" as="geometry">
            <mxPoint x="-10" as="offset" />
          </mxGeometry>
        </mxCell>
        <object placeholders="1" c4Name="Cliente" c4Type="Persona" c4Description="Requisita chamados.&#xa;Visualização O.S. em aberto, andamento e finalizadas.&#xa;Extrai relatório" label="&lt;font style=&quot;font-size: 16px&quot;&gt;&lt;b&gt;%c4Name%&lt;/b&gt;&lt;/font&gt;&lt;div&gt;[%c4Type%]&lt;/div&gt;&lt;br&gt;&lt;div&gt;&lt;font style=&quot;font-size: 11px&quot;&gt;&lt;font color=&quot;#cccccc&quot;&gt;%c4Description%&lt;/font&gt;&lt;/div&gt;" id="9updrbojXEWRgpuSJQtc-3">
          <mxCell style="html=1;fontSize=11;dashed=0;whiteSpace=wrap;fillColor=#083F75;strokeColor=#06315C;fontColor=#ffffff;shape=mxgraph.c4.person2;align=center;metaEdit=1;points=[[0.5,0,0],[1,0.5,0],[1,0.75,0],[0.75,1,0],[0.5,1,0],[0.25,1,0],[0,0.75,0],[0,0.5,0]];resizable=0;expand=1;rotation=0;shadow=0;" parent="1" vertex="1">
            <mxGeometry x="100" y="10" width="200" height="180" as="geometry" />
          </mxCell>
        </object>
        <mxCell id="1NbD-LZ5WNQoty72f_LN-2" style="rounded=0;orthogonalLoop=1;jettySize=auto;html=1;fontFamily=Helvetica;fontSize=11;fontColor=#ffffff;" parent="1" source="9updrbojXEWRgpuSJQtc-4" target="9updrbojXEWRgpuSJQtc-7" edge="1">
          <mxGeometry relative="1" as="geometry" />
        </mxCell>
        <mxCell id="1NbD-LZ5WNQoty72f_LN-6" value="&lt;font color=&quot;#030303&quot;&gt;Recebe Chamados&lt;br&gt;Envia dados do atendimento&lt;br&gt;Finaliza O.S.&amp;nbsp;&lt;/font&gt;" style="edgeLabel;html=1;align=center;verticalAlign=middle;resizable=0;points=[];fontSize=11;fontFamily=Helvetica;fontColor=#ffffff;fontStyle=1" parent="1NbD-LZ5WNQoty72f_LN-2" vertex="1" connectable="0">
          <mxGeometry x="-0.0884" relative="1" as="geometry">
            <mxPoint x="-15" y="-5" as="offset" />
          </mxGeometry>
        </mxCell>
        <object placeholders="1" c4Name="Técnico de Campo " c4Type="Persona" c4Description="Recebe chamados.&#xa;Preenche OS.&#xa;Captura de dados adicionais para a O.S." label="&lt;font style=&quot;font-size: 16px&quot;&gt;&lt;b&gt;%c4Name%&lt;/b&gt;&lt;/font&gt;&lt;div&gt;[%c4Type%]&lt;/div&gt;&lt;br&gt;&lt;div&gt;&lt;font style=&quot;font-size: 11px&quot;&gt;&lt;font color=&quot;#cccccc&quot;&gt;%c4Description%&lt;/font&gt;&lt;/div&gt;" id="9updrbojXEWRgpuSJQtc-4">
          <mxCell style="html=1;fontSize=11;dashed=0;whiteSpace=wrap;fillColor=#083F75;strokeColor=#06315C;fontColor=#ffffff;shape=mxgraph.c4.person2;align=center;metaEdit=1;points=[[0.5,0,0],[1,0.5,0],[1,0.75,0],[0.75,1,0],[0.5,1,0],[0.25,1,0],[0,0.75,0],[0,0.5,0]];resizable=0;expand=1;rotation=0;shadow=0;" parent="1" vertex="1">
            <mxGeometry x="1580" y="-30" width="200" height="180" as="geometry" />
          </mxCell>
        </object>
        <mxCell id="1NbD-LZ5WNQoty72f_LN-14" style="rounded=0;orthogonalLoop=1;jettySize=auto;html=1;entryX=0;entryY=0.25;entryDx=0;entryDy=0;entryPerimeter=0;fontFamily=Helvetica;fontSize=11;fontColor=#ffffff;" parent="1" source="9updrbojXEWRgpuSJQtc-5" target="9updrbojXEWRgpuSJQtc-6" edge="1">
          <mxGeometry relative="1" as="geometry" />
        </mxCell>
        <mxCell id="V_OctsjPFnfg_Xo5bSFa-1" value="&lt;font style=&quot;font-size: 13px;&quot; color=&quot;#030303&quot;&gt;Envio dos chamados para a tela do Analista&lt;/font&gt;" style="edgeLabel;html=1;align=center;verticalAlign=middle;resizable=0;points=[];fontSize=11;fontFamily=Helvetica;fontColor=#ffffff;fontStyle=1" parent="1NbD-LZ5WNQoty72f_LN-14" vertex="1" connectable="0">
          <mxGeometry x="-0.143" y="-6" relative="1" as="geometry">
            <mxPoint x="3" y="-16" as="offset" />
          </mxGeometry>
        </mxCell>
        <object placeholders="1" c4Type="Portal de Chamados - Aplicação Web" c4Container="Container" c4Technology="HTML5, CSS, JavaScript, Angular" c4Description="Ambiente responsável por receber os chamados e encaminhar para a lista do Analista, além de listar chamados em aberto, andamento e finalizados." label="&lt;font style=&quot;font-size: 12px;&quot;&gt;&lt;span style=&quot;font-size: 12px;&quot;&gt;%c4Type%&lt;/span&gt;&lt;/font&gt;&lt;div style=&quot;font-size: 12px;&quot;&gt;[%c4Container%:&amp;nbsp;%c4Technology%]&lt;/div&gt;&lt;br style=&quot;font-size: 12px;&quot;&gt;&lt;div style=&quot;font-size: 12px;&quot;&gt;&lt;font style=&quot;font-size: 12px;&quot;&gt;&lt;font color=&quot;#E6E6E6&quot; style=&quot;font-size: 12px;&quot;&gt;%c4Description%&lt;/font&gt;&lt;/font&gt;&lt;/div&gt;" id="9updrbojXEWRgpuSJQtc-5">
          <mxCell style="shape=mxgraph.c4.webBrowserContainer2;whiteSpace=wrap;html=1;boundedLbl=1;rounded=0;labelBackgroundColor=none;strokeColor=#118ACD;fillColor=#23A2D9;strokeColor=#118ACD;strokeColor2=#0E7DAD;fontSize=12;fontColor=#ffffff;align=center;metaEdit=1;points=[[0.5,0,0],[1,0.25,0],[1,0.5,0],[1,0.75,0],[0.5,1,0],[0,0.75,0],[0,0.5,0],[0,0.25,0]];resizable=0;shadow=0;dashed=0;fontFamily=Verdana;fontStyle=1" parent="1" vertex="1">
            <mxGeometry x="260" y="360" width="240" height="160" as="geometry" />
          </mxCell>
        </object>
        <mxCell id="9updrbojXEWRgpuSJQtc-10" style="rounded=0;orthogonalLoop=1;jettySize=auto;html=1;entryX=0.5;entryY=0;entryDx=0;entryDy=0;entryPerimeter=0;fontFamily=Helvetica;fontSize=11;fontColor=#ffffff;" parent="1" source="9updrbojXEWRgpuSJQtc-6" target="9updrbojXEWRgpuSJQtc-8" edge="1">
          <mxGeometry relative="1" as="geometry" />
        </mxCell>
        <mxCell id="1NbD-LZ5WNQoty72f_LN-13" value="&lt;font color=&quot;#030303&quot; style=&quot;font-size: 12px;&quot;&gt;Chamadas de serviços em API HTTP/HTTPS&amp;nbsp;&lt;/font&gt;" style="edgeLabel;html=1;align=center;verticalAlign=middle;resizable=0;points=[];fontSize=12;fontFamily=Verdana;fontColor=#ffffff;fontStyle=1" parent="9updrbojXEWRgpuSJQtc-10" vertex="1" connectable="0">
          <mxGeometry x="0.14" y="30" relative="1" as="geometry">
            <mxPoint x="-30" y="-49" as="offset" />
          </mxGeometry>
        </mxCell>
        <object placeholders="1" c4Type="Agenda Técnica - Web Aplicação" c4Container="Container" c4Technology="HTML5, CSS, JavaScript, Angular" c4Description="Pagina Principal onde o Analista ficará responsável por manipular os chamados em aberto e direcionar a os técnicos.&#xa;Cadastro de equipamento, cliente e Usuários" label="&lt;font style=&quot;font-size: 14px;&quot;&gt;&lt;b style=&quot;font-size: 14px;&quot;&gt;%c4Type%&lt;/b&gt;&lt;/font&gt;&lt;div style=&quot;font-size: 14px;&quot;&gt;[%c4Container%:&amp;nbsp;%c4Technology%]&lt;/div&gt;&lt;br style=&quot;font-size: 14px;&quot;&gt;&lt;div style=&quot;font-size: 14px;&quot;&gt;&lt;font style=&quot;font-size: 14px;&quot;&gt;&lt;font color=&quot;#E6E6E6&quot; style=&quot;font-size: 14px;&quot;&gt;%c4Description%&lt;/font&gt;&lt;/font&gt;&lt;/div&gt;" id="9updrbojXEWRgpuSJQtc-6">
          <mxCell style="shape=mxgraph.c4.webBrowserContainer2;whiteSpace=wrap;html=1;boundedLbl=1;rounded=0;labelBackgroundColor=none;strokeColor=#118ACD;fillColor=#23A2D9;strokeColor=#118ACD;strokeColor2=#0E7DAD;fontSize=14;fontColor=#ffffff;align=center;metaEdit=1;points=[[0.5,0,0],[1,0.25,0],[1,0.5,0],[1,0.75,0],[0.5,1,0],[0,0.75,0],[0,0.5,0],[0,0.25,0]];resizable=0;shadow=0;dashed=0;fontFamily=Helvetica;" parent="1" vertex="1">
            <mxGeometry x="860" y="400" width="240" height="160" as="geometry" />
          </mxCell>
        </object>
        <mxCell id="1NbD-LZ5WNQoty72f_LN-15" style="rounded=0;orthogonalLoop=1;jettySize=auto;html=1;entryX=1;entryY=0.5;entryDx=0;entryDy=0;entryPerimeter=0;fontFamily=Helvetica;fontSize=11;fontColor=#ffffff;" parent="1" source="9updrbojXEWRgpuSJQtc-7" target="9updrbojXEWRgpuSJQtc-8" edge="1">
          <mxGeometry relative="1" as="geometry" />
        </mxCell>
        <mxCell id="or5KOofysbrUI1dY8usR-4" value="&lt;font face=&quot;Verdana&quot; style=&quot;font-size: 15px;&quot;&gt;Chamada de API HTTPS&lt;/font&gt;" style="edgeLabel;html=1;align=center;verticalAlign=middle;resizable=0;points=[];fontStyle=1" parent="1NbD-LZ5WNQoty72f_LN-15" vertex="1" connectable="0">
          <mxGeometry x="0.0707" y="4" relative="1" as="geometry">
            <mxPoint y="-1" as="offset" />
          </mxGeometry>
        </mxCell>
        <mxCell id="or5KOofysbrUI1dY8usR-2" style="edgeStyle=orthogonalEdgeStyle;rounded=0;orthogonalLoop=1;jettySize=auto;html=1;" parent="1" source="9updrbojXEWRgpuSJQtc-7" target="9updrbojXEWRgpuSJQtc-19" edge="1">
          <mxGeometry relative="1" as="geometry" />
        </mxCell>
        <mxCell id="or5KOofysbrUI1dY8usR-3" value="&lt;font style=&quot;font-size: 14px;&quot; face=&quot;Verdana&quot;&gt;Requisita Geolocalização&lt;/font&gt;" style="edgeLabel;html=1;align=center;verticalAlign=middle;resizable=0;points=[];fontStyle=1" parent="or5KOofysbrUI1dY8usR-2" vertex="1" connectable="0">
          <mxGeometry x="-0.3532" y="-4" relative="1" as="geometry">
            <mxPoint as="offset" />
          </mxGeometry>
        </mxCell>
        <object placeholders="1" c4Name="APP Mobile" c4Type="Container" c4Technology="React Native" c4Description="Ambiente para visualização da agenda técnica e preenchimento do relatório em campo e Upload de Dados." label="&lt;font style=&quot;font-size: 14px;&quot;&gt;&lt;b style=&quot;font-size: 14px;&quot;&gt;%c4Name%&lt;/b&gt;&lt;/font&gt;&lt;div style=&quot;font-size: 14px;&quot;&gt;[%c4Type%: %c4Technology%]&lt;/div&gt;&lt;br style=&quot;font-size: 14px;&quot;&gt;&lt;div style=&quot;font-size: 14px;&quot;&gt;&lt;font style=&quot;font-size: 14px;&quot;&gt;&lt;font color=&quot;#E6E6E6&quot; style=&quot;font-size: 14px;&quot;&gt;%c4Description%&lt;/font&gt;&lt;/font&gt;&lt;/div&gt;" id="9updrbojXEWRgpuSJQtc-7">
          <mxCell style="rounded=1;whiteSpace=wrap;html=1;fontSize=14;labelBackgroundColor=none;fillColor=#23A2D9;fontColor=#ffffff;align=center;arcSize=13;strokeColor=#0E7DAD;metaEdit=1;resizable=0;points=[[0.25,0,0],[0.5,0,0],[0.75,0,0],[1,0.25,0],[1,0.5,0],[1,0.75,0],[0.75,1,0],[0.5,1,0],[0.25,1,0],[0,0.75,0],[0,0.5,0],[0,0.25,0]];shadow=0;dashed=0;fontFamily=Verdana;" parent="1" vertex="1">
            <mxGeometry x="1370" y="420" width="240" height="120" as="geometry" />
          </mxCell>
        </object>
        <mxCell id="9updrbojXEWRgpuSJQtc-18" style="rounded=0;orthogonalLoop=1;jettySize=auto;html=1;entryX=1;entryY=0.75;entryDx=0;entryDy=0;entryPerimeter=0;fontFamily=Helvetica;fontSize=11;fontColor=#ffffff;" parent="1" source="9updrbojXEWRgpuSJQtc-8" target="MBtAxdayAQe8jduiBed7-2" edge="1">
          <mxGeometry relative="1" as="geometry" />
        </mxCell>
        <mxCell id="or5KOofysbrUI1dY8usR-5" value="&lt;font size=&quot;1&quot; face=&quot;Verdana&quot;&gt;&lt;b style=&quot;font-size: 12px;&quot;&gt;Escrita e Leitura de dados da O.S.e&amp;nbsp;&lt;/b&gt;&lt;/font&gt;&lt;font face=&quot;Verdana&quot;&gt;&lt;span style=&quot;font-size: 12px;&quot;&gt;&lt;b&gt;Usuários&lt;/b&gt;&lt;/span&gt;&lt;/font&gt;" style="edgeLabel;html=1;align=center;verticalAlign=middle;resizable=0;points=[];" parent="9updrbojXEWRgpuSJQtc-18" vertex="1" connectable="0">
          <mxGeometry x="-0.2719" relative="1" as="geometry">
            <mxPoint as="offset" />
          </mxGeometry>
        </mxCell>
        <object placeholders="1" c4Name="API de Serviços" c4Type="Container" c4Technology="Node.js" c4Description="Provê todas funcionalidades executadas no lado do servidor." label="&lt;font style=&quot;font-size: 16px&quot;&gt;&lt;b&gt;%c4Name%&lt;/b&gt;&lt;/font&gt;&lt;div&gt;[%c4Type%: %c4Technology%]&lt;/div&gt;&lt;br&gt;&lt;div&gt;&lt;font style=&quot;font-size: 11px&quot;&gt;&lt;font color=&quot;#E6E6E6&quot;&gt;%c4Description%&lt;/font&gt;&lt;/div&gt;" id="9updrbojXEWRgpuSJQtc-8">
          <mxCell style="rounded=1;whiteSpace=wrap;html=1;fontSize=11;labelBackgroundColor=none;fillColor=#23A2D9;fontColor=#ffffff;align=center;arcSize=10;strokeColor=#0E7DAD;metaEdit=1;resizable=0;points=[[0.25,0,0],[0.5,0,0],[0.75,0,0],[1,0.25,0],[1,0.5,0],[1,0.75,0],[0.75,1,0],[0.5,1,0],[0.25,1,0],[0,0.75,0],[0,0.5,0],[0,0.25,0]];shadow=0;dashed=0;fontFamily=Helvetica;" parent="1" vertex="1">
            <mxGeometry x="590" y="730" width="240" height="120" as="geometry" />
          </mxCell>
        </object>
        <object placeholders="1" c4Name="API Geolocalização Google" c4Type="Software System" c4Description="Description of external software system." label="&lt;font style=&quot;font-size: 16px&quot;&gt;&lt;b&gt;%c4Name%&lt;/b&gt;&lt;/font&gt;&lt;div&gt;[%c4Type%]&lt;/div&gt;&lt;br&gt;&lt;div&gt;&lt;font style=&quot;font-size: 11px&quot;&gt;&lt;font color=&quot;#cccccc&quot;&gt;%c4Description%&lt;/font&gt;&lt;/div&gt;" id="9updrbojXEWRgpuSJQtc-19">
          <mxCell style="rounded=1;whiteSpace=wrap;html=1;labelBackgroundColor=none;fillColor=#8C8496;fontColor=#ffffff;align=center;arcSize=10;strokeColor=#736782;metaEdit=1;resizable=0;points=[[0.25,0,0],[0.5,0,0],[0.75,0,0],[1,0.25,0],[1,0.5,0],[1,0.75,0],[0.75,1,0],[0.5,1,0],[0.25,1,0],[0,0.75,0],[0,0.5,0],[0,0.25,0]];shadow=0;dashed=0;fontFamily=Helvetica;fontSize=11;" parent="1" vertex="1">
            <mxGeometry x="1370" y="1160" width="240" height="120" as="geometry" />
          </mxCell>
        </object>
      </root>
    </mxGraphModel>
  </diagram>
  <diagram name="Cópia do Página-1" id="M6IoY1ll3AGHAKi0uV8Q">
    <mxGraphModel dx="1707" dy="1645" grid="1" gridSize="10" guides="1" tooltips="1" connect="1" arrows="1" fold="1" page="1" pageScale="1" pageWidth="827" pageHeight="1169" math="0" shadow="0">
      <root>
        <mxCell id="AR0QgThomPJxbp-2TlTz-0" />
        <mxCell id="AR0QgThomPJxbp-2TlTz-1" parent="AR0QgThomPJxbp-2TlTz-0" />
        <mxCell id="AR0QgThomPJxbp-2TlTz-2" value="Visualização e roteiro &lt;br style=&quot;font-size: 16px;&quot;&gt;da agenda designada,&amp;nbsp;&amp;nbsp;&lt;br style=&quot;font-size: 16px;&quot;&gt;preenchimento das informações &lt;br style=&quot;font-size: 16px;&quot;&gt;com fotos do(s) equipamento(s)&amp;nbsp;" style="edgeStyle=orthogonalEdgeStyle;rounded=0;orthogonalLoop=1;jettySize=auto;dashed=1;fontSize=16;fontStyle=1;align=center;horizontal=1;verticalAlign=bottom;labelBorderColor=none;html=1;labelPosition=center;verticalLabelPosition=top;" parent="AR0QgThomPJxbp-2TlTz-1" source="AR0QgThomPJxbp-2TlTz-4" target="AR0QgThomPJxbp-2TlTz-19" edge="1">
          <mxGeometry x="0.25" relative="1" as="geometry">
            <mxPoint x="470.00000000000045" y="170" as="sourcePoint" />
            <Array as="points" />
            <mxPoint as="offset" />
          </mxGeometry>
        </mxCell>
        <mxCell id="AR0QgThomPJxbp-2TlTz-3" style="edgeStyle=orthogonalEdgeStyle;rounded=0;orthogonalLoop=1;jettySize=auto;html=1;entryX=0.5;entryY=0;entryDx=0;entryDy=0;entryPerimeter=0;" parent="AR0QgThomPJxbp-2TlTz-1" source="AR0QgThomPJxbp-2TlTz-4" target="AR0QgThomPJxbp-2TlTz-19" edge="1">
          <mxGeometry relative="1" as="geometry">
            <mxPoint x="460" y="330" as="targetPoint" />
          </mxGeometry>
        </mxCell>
        <object placeholders="1" c4Name="Técnico de Manutenção" c4Type="Usuário" c4Description="Usuário que faz o preenchimento e execução a manutenção no Cliente" label="&lt;font style=&quot;font-size: 16px&quot;&gt;&lt;b&gt;%c4Name%&lt;/b&gt;&lt;/font&gt;&lt;div&gt;[%c4Type%]&lt;/div&gt;&lt;br&gt;&lt;div&gt;&lt;font style=&quot;font-size: 11px&quot;&gt;&lt;font color=&quot;#cccccc&quot;&gt;%c4Description%&lt;/font&gt;&lt;/div&gt;" id="AR0QgThomPJxbp-2TlTz-4">
          <mxCell style="html=1;fontSize=11;dashed=0;whiteSpace=wrap;fillColor=#0050ef;strokeColor=#001DBC;fontColor=#ffffff;shape=mxgraph.c4.person2;align=center;metaEdit=1;points=[[0.5,0,0],[1,0.5,0],[1,0.75,0],[0.75,1,0],[0.5,1,0],[0.25,1,0],[0,0.75,0],[0,0.5,0]];resizable=0;" parent="AR0QgThomPJxbp-2TlTz-1" vertex="1">
            <mxGeometry x="410" y="-100" width="200" height="180" as="geometry" />
          </mxCell>
        </object>
        <mxCell id="AR0QgThomPJxbp-2TlTz-5" value="Legenda" style="shape=table;startSize=25;container=1;collapsible=0;childLayout=tableLayout;fontSize=16;align=left;verticalAlign=top;fillColor=#6666FF;strokeColor=#6c8ebf;fontStyle=1;spacingLeft=6;spacing=0;resizable=0;" parent="AR0QgThomPJxbp-2TlTz-1" vertex="1">
          <mxGeometry x="630" y="-70" width="180" height="200" as="geometry" />
        </mxCell>
        <mxCell id="AR0QgThomPJxbp-2TlTz-6" value="" style="shape=tableRow;horizontal=0;startSize=0;swimlaneHead=0;swimlaneBody=0;strokeColor=inherit;top=0;left=0;bottom=0;right=0;collapsible=0;dropTarget=0;fillColor=none;points=[[0,0.5],[1,0.5]];portConstraint=eastwest;fontSize=12;" parent="AR0QgThomPJxbp-2TlTz-5" vertex="1">
          <mxGeometry y="25" width="180" height="31" as="geometry" />
        </mxCell>
        <mxCell id="AR0QgThomPJxbp-2TlTz-7" value="Usuário" style="shape=partialRectangle;html=1;whiteSpace=wrap;connectable=0;strokeColor=inherit;overflow=hidden;fillColor=#1E4074;top=0;left=0;bottom=0;right=0;pointerEvents=1;fontSize=12;align=left;fontColor=#FFFFFF;gradientColor=none;spacingLeft=10;spacingRight=4;" parent="AR0QgThomPJxbp-2TlTz-6" vertex="1">
          <mxGeometry width="180" height="31" as="geometry">
            <mxRectangle width="180" height="31" as="alternateBounds" />
          </mxGeometry>
        </mxCell>
        <mxCell id="AR0QgThomPJxbp-2TlTz-8" value="" style="shape=tableRow;horizontal=0;startSize=0;swimlaneHead=0;swimlaneBody=0;strokeColor=inherit;top=0;left=0;bottom=0;right=0;collapsible=0;dropTarget=0;fillColor=none;points=[[0,0.5],[1,0.5]];portConstraint=eastwest;fontSize=12;" parent="AR0QgThomPJxbp-2TlTz-5" vertex="1">
          <mxGeometry y="56" width="180" height="31" as="geometry" />
        </mxCell>
        <mxCell id="AR0QgThomPJxbp-2TlTz-9" value="MODULO DE SISTEMA" style="shape=partialRectangle;html=1;whiteSpace=wrap;connectable=0;strokeColor=inherit;overflow=hidden;fillColor=#3162AF;top=0;left=0;bottom=0;right=0;pointerEvents=1;fontSize=12;align=left;fontColor=#FFFFFF;gradientColor=none;spacingLeft=10;spacingRight=4;" parent="AR0QgThomPJxbp-2TlTz-8" vertex="1">
          <mxGeometry width="180" height="31" as="geometry">
            <mxRectangle width="180" height="31" as="alternateBounds" />
          </mxGeometry>
        </mxCell>
        <mxCell id="AR0QgThomPJxbp-2TlTz-10" value="" style="shape=tableRow;horizontal=0;startSize=0;swimlaneHead=0;swimlaneBody=0;strokeColor=inherit;top=0;left=0;bottom=0;right=0;collapsible=0;dropTarget=0;fillColor=none;points=[[0,0.5],[1,0.5]];portConstraint=eastwest;fontSize=12;" parent="AR0QgThomPJxbp-2TlTz-5" vertex="1">
          <mxGeometry y="87" width="180" height="31" as="geometry" />
        </mxCell>
        <mxCell id="AR0QgThomPJxbp-2TlTz-11" value="Aplicação WEB" style="shape=partialRectangle;html=1;whiteSpace=wrap;connectable=0;strokeColor=inherit;overflow=hidden;fillColor=#6666FF;top=0;left=0;bottom=0;right=0;pointerEvents=1;fontSize=12;align=left;fontColor=#FFFFFF;gradientColor=none;spacingLeft=10;spacingRight=4;" parent="AR0QgThomPJxbp-2TlTz-10" vertex="1">
          <mxGeometry width="180" height="31" as="geometry">
            <mxRectangle width="180" height="31" as="alternateBounds" />
          </mxGeometry>
        </mxCell>
        <mxCell id="AR0QgThomPJxbp-2TlTz-12" value="" style="shape=tableRow;horizontal=0;startSize=0;swimlaneHead=0;swimlaneBody=0;strokeColor=inherit;top=0;left=0;bottom=0;right=0;collapsible=0;dropTarget=0;fillColor=none;points=[[0,0.5],[1,0.5]];portConstraint=eastwest;fontSize=12;" parent="AR0QgThomPJxbp-2TlTz-5" vertex="1">
          <mxGeometry y="118" width="180" height="31" as="geometry" />
        </mxCell>
        <mxCell id="AR0QgThomPJxbp-2TlTz-13" value="Cliente (Usuário Externo)" style="shape=partialRectangle;html=1;whiteSpace=wrap;connectable=0;strokeColor=inherit;overflow=hidden;fillColor=#6b6477;top=0;left=0;bottom=0;right=0;pointerEvents=1;fontSize=12;align=left;fontColor=#FFFFFF;gradientColor=none;spacingLeft=10;spacingRight=4;" parent="AR0QgThomPJxbp-2TlTz-12" vertex="1">
          <mxGeometry width="180" height="31" as="geometry">
            <mxRectangle width="180" height="31" as="alternateBounds" />
          </mxGeometry>
        </mxCell>
        <mxCell id="AR0QgThomPJxbp-2TlTz-14" value="" style="shape=tableRow;horizontal=0;startSize=0;swimlaneHead=0;swimlaneBody=0;strokeColor=inherit;top=0;left=0;bottom=0;right=0;collapsible=0;dropTarget=0;fillColor=none;points=[[0,0.5],[1,0.5]];portConstraint=eastwest;fontSize=12;" parent="AR0QgThomPJxbp-2TlTz-5" vertex="1">
          <mxGeometry y="149" width="180" height="31" as="geometry" />
        </mxCell>
        <mxCell id="AR0QgThomPJxbp-2TlTz-15" value="Servidor Cloud AWS" style="shape=partialRectangle;html=1;whiteSpace=wrap;connectable=0;strokeColor=inherit;overflow=hidden;fillColor=#8b8496;top=0;left=0;bottom=0;right=0;pointerEvents=1;fontSize=12;align=left;fontColor=#FFFFFF;gradientColor=none;spacingLeft=10;spacingRight=4;" parent="AR0QgThomPJxbp-2TlTz-14" vertex="1">
          <mxGeometry width="180" height="31" as="geometry">
            <mxRectangle width="180" height="31" as="alternateBounds" />
          </mxGeometry>
        </mxCell>
        <mxCell id="AR0QgThomPJxbp-2TlTz-16" value="" style="shape=tableRow;horizontal=0;startSize=0;swimlaneHead=0;swimlaneBody=0;strokeColor=inherit;top=0;left=0;bottom=0;right=0;collapsible=0;dropTarget=0;fillColor=none;points=[[0,0.5],[1,0.5]];portConstraint=eastwest;fontSize=12;" parent="AR0QgThomPJxbp-2TlTz-5" vertex="1">
          <mxGeometry y="180" width="180" height="20" as="geometry" />
        </mxCell>
        <mxCell id="AR0QgThomPJxbp-2TlTz-17" value="" style="shape=partialRectangle;html=1;whiteSpace=wrap;connectable=0;strokeColor=inherit;overflow=hidden;fillColor=#7dbef2;top=0;left=0;bottom=0;right=0;pointerEvents=1;fontSize=12;align=left;fontColor=#FFFFFF;gradientColor=none;spacingLeft=10;spacingRight=4;" parent="AR0QgThomPJxbp-2TlTz-16" vertex="1">
          <mxGeometry width="180" height="20" as="geometry">
            <mxRectangle width="180" height="20" as="alternateBounds" />
          </mxGeometry>
        </mxCell>
        <mxCell id="AR0QgThomPJxbp-2TlTz-18" style="edgeStyle=orthogonalEdgeStyle;rounded=0;orthogonalLoop=1;jettySize=auto;html=1;entryX=0.5;entryY=0;entryDx=0;entryDy=0;entryPerimeter=0;" parent="AR0QgThomPJxbp-2TlTz-1" source="AR0QgThomPJxbp-2TlTz-19" target="AR0QgThomPJxbp-2TlTz-21" edge="1">
          <mxGeometry relative="1" as="geometry" />
        </mxCell>
        <object placeholders="1" c4Name="Aplicativo de relatório técnico e levantamento de dados " c4Type="APP Mobile" c4Description="Aplicativo amparo ao preenchimento do relatório em campo, fotos e UPLOAD de dados no sistema" label="&lt;font style=&quot;font-size: 16px&quot;&gt;&lt;b&gt;%c4Name%&lt;/b&gt;&lt;/font&gt;&lt;div&gt;[%c4Type%]&lt;/div&gt;&lt;br&gt;&lt;div&gt;&lt;font style=&quot;font-size: 11px&quot;&gt;&lt;font color=&quot;#cccccc&quot;&gt;%c4Description%&lt;/font&gt;&lt;/div&gt;" id="AR0QgThomPJxbp-2TlTz-19">
          <mxCell style="rounded=1;whiteSpace=wrap;html=1;labelBackgroundColor=none;fillColor=#0050ef;fontColor=#ffffff;align=center;arcSize=10;strokeColor=#001DBC;metaEdit=1;resizable=0;points=[[0.25,0,0],[0.5,0,0],[0.75,0,0],[1,0.25,0],[1,0.5,0],[1,0.75,0],[0.75,1,0],[0.5,1,0],[0.25,1,0],[0,0.75,0],[0,0.5,0],[0,0.25,0]];" parent="AR0QgThomPJxbp-2TlTz-1" vertex="1">
            <mxGeometry x="414" y="320" width="240" height="120" as="geometry" />
          </mxCell>
        </object>
        <object placeholders="1" c4Name="Sistema de gestão de manutenção e controle de documentação" c4Type="SystemScopeBoundary" c4Application="Software System" label="&lt;font style=&quot;font-size: 16px&quot;&gt;&lt;b&gt;&lt;div style=&quot;text-align: left&quot;&gt;%c4Name%&lt;/div&gt;&lt;/b&gt;&lt;/font&gt;&lt;div style=&quot;text-align: left&quot;&gt;[%c4Application%]&lt;/div&gt;" id="AR0QgThomPJxbp-2TlTz-20">
          <mxCell style="rounded=1;fontSize=11;whiteSpace=wrap;html=1;arcSize=20;fillColor=none;strokeColor=#666666;fontColor=#333333;labelBackgroundColor=none;align=left;verticalAlign=bottom;labelBorderColor=none;spacingTop=0;spacing=10;metaEdit=1;rotatable=0;perimeter=rectanglePerimeter;noLabel=0;labelPadding=0;allowArrows=0;connectable=0;expand=0;recursiveResize=0;editable=1;pointerEvents=0;absoluteArcSize=1;points=[[0.25,0,0],[0.5,0,0],[0.75,0,0],[1,0.25,0],[1,0.5,0],[1,0.75,0],[0.75,1,0],[0.5,1,0],[0.25,1,0],[0,0.75,0],[0,0.5,0],[0,0.25,0]];" parent="AR0QgThomPJxbp-2TlTz-1" vertex="1">
            <mxGeometry x="-540" y="-120" width="1384" height="940" as="geometry" />
          </mxCell>
        </object>
        <object placeholders="1" c4Name="Servidor AWS" c4Type="Cloud System" c4Description="Ambiente responsável pela sustentação das aplicações WEB, Mobile e Banco de dados" label="&lt;font style=&quot;font-size: 15px;&quot;&gt;&lt;b style=&quot;font-size: 15px;&quot;&gt;%c4Name%&lt;/b&gt;&lt;/font&gt;&lt;div style=&quot;font-size: 15px;&quot;&gt;[%c4Type%]&lt;/div&gt;&lt;br style=&quot;font-size: 15px;&quot;&gt;&lt;div style=&quot;font-size: 15px;&quot;&gt;&lt;font style=&quot;font-size: 15px;&quot;&gt;&lt;font color=&quot;#cccccc&quot; style=&quot;font-size: 15px;&quot;&gt;%c4Description%&lt;/font&gt;&lt;/font&gt;&lt;/div&gt;" id="AR0QgThomPJxbp-2TlTz-21">
          <mxCell style="rounded=1;whiteSpace=wrap;html=1;labelBackgroundColor=none;fillColor=#8C8496;fontColor=#ffffff;align=center;arcSize=10;strokeColor=#736782;metaEdit=1;resizable=0;points=[[0.25,0,0],[0.5,0,0],[0.75,0,0],[1,0.25,0],[1,0.5,0],[1,0.75,0],[0.75,1,0],[0.5,1,0],[0.25,1,0],[0,0.75,0],[0,0.5,0],[0,0.25,0]];fontSize=15;" parent="AR0QgThomPJxbp-2TlTz-1" vertex="1">
            <mxGeometry x="180" y="680" width="240" height="120" as="geometry" />
          </mxCell>
        </object>
        <mxCell id="AR0QgThomPJxbp-2TlTz-22" value="Manipulação de relatório e agenda técnica, &lt;br style=&quot;font-size: 16px;&quot;&gt;extração de relatório e input de dados&amp;nbsp;&amp;nbsp;" style="edgeStyle=orthogonalEdgeStyle;rounded=0;orthogonalLoop=1;jettySize=auto;html=1;dashed=1;fontSize=16;fontStyle=1;exitX=0.5;exitY=1;exitDx=0;exitDy=0;exitPerimeter=0;" parent="AR0QgThomPJxbp-2TlTz-1" source="AR0QgThomPJxbp-2TlTz-24" target="AR0QgThomPJxbp-2TlTz-26" edge="1">
          <mxGeometry x="0.0007" y="8" relative="1" as="geometry">
            <mxPoint x="190" y="200" as="sourcePoint" />
            <mxPoint x="130" y="325" as="targetPoint" />
            <Array as="points">
              <mxPoint x="150" y="240" />
              <mxPoint x="80" y="240" />
            </Array>
            <mxPoint as="offset" />
          </mxGeometry>
        </mxCell>
        <mxCell id="AR0QgThomPJxbp-2TlTz-23" style="edgeStyle=orthogonalEdgeStyle;rounded=0;orthogonalLoop=1;jettySize=auto;html=1;" parent="AR0QgThomPJxbp-2TlTz-1" source="AR0QgThomPJxbp-2TlTz-24" target="AR0QgThomPJxbp-2TlTz-26" edge="1">
          <mxGeometry relative="1" as="geometry">
            <Array as="points">
              <mxPoint x="152" y="250" />
              <mxPoint x="-80" y="250" />
            </Array>
          </mxGeometry>
        </mxCell>
        <object placeholders="1" c4Name="Analista de Planejamento Operacional" c4Type="Usuário" c4Description="Responsável pelo agendamento da ordem de serviço, roteiro da agenda do técnico, extração relatório técnico e material necessário" label="&lt;font style=&quot;font-size: 11px;&quot;&gt;&lt;b style=&quot;font-size: 11px;&quot;&gt;%c4Name%&lt;/b&gt;&lt;/font&gt;&lt;div style=&quot;font-size: 11px;&quot;&gt;[%c4Type%]&lt;/div&gt;&lt;br style=&quot;font-size: 11px;&quot;&gt;&lt;div style=&quot;font-size: 11px;&quot;&gt;&lt;font style=&quot;font-size: 11px;&quot;&gt;&lt;font color=&quot;#cccccc&quot; style=&quot;font-size: 11px;&quot;&gt;%c4Description%&lt;/font&gt;&lt;/font&gt;&lt;/div&gt;" id="AR0QgThomPJxbp-2TlTz-24">
          <mxCell style="html=1;fontSize=11;dashed=0;whiteSpace=wrap;fillColor=#0050ef;strokeColor=#001DBC;fontColor=#ffffff;shape=mxgraph.c4.person2;align=center;metaEdit=1;points=[[0.5,0,0],[1,0.5,0],[1,0.75,0],[0.75,1,0],[0.5,1,0],[0.25,1,0],[0,0.75,0],[0,0.5,0]];resizable=0;" parent="AR0QgThomPJxbp-2TlTz-1" vertex="1">
            <mxGeometry x="52" y="-100" width="200" height="180" as="geometry" />
          </mxCell>
        </object>
        <mxCell id="AR0QgThomPJxbp-2TlTz-25" style="edgeStyle=orthogonalEdgeStyle;rounded=0;orthogonalLoop=1;jettySize=auto;html=1;entryX=0.5;entryY=0;entryDx=0;entryDy=0;entryPerimeter=0;" parent="AR0QgThomPJxbp-2TlTz-1" source="AR0QgThomPJxbp-2TlTz-26" target="AR0QgThomPJxbp-2TlTz-21" edge="1">
          <mxGeometry relative="1" as="geometry">
            <Array as="points">
              <mxPoint x="-80" y="560" />
              <mxPoint x="300" y="560" />
            </Array>
          </mxGeometry>
        </mxCell>
        <object placeholders="1" c4Name="Aplicação Web - Gestão das Manutenções" c4Type="Sistema WEB" c4Description="Ambiente responsável pelo agendamento dos chamados, manipulação dos relatórios (inclusão, extração e visualização), base de dados dos clientes/equipamentos vistoriados, monitoramento da agenda técnica " label="&lt;font style=&quot;font-size: 11px;&quot;&gt;&lt;b style=&quot;font-size: 11px;&quot;&gt;%c4Name%&lt;/b&gt;&lt;/font&gt;&lt;div style=&quot;font-size: 11px;&quot;&gt;[%c4Type%]&lt;/div&gt;&lt;br style=&quot;font-size: 11px;&quot;&gt;&lt;div style=&quot;font-size: 11px;&quot;&gt;&lt;font style=&quot;font-size: 11px;&quot;&gt;&lt;font color=&quot;#cccccc&quot; style=&quot;font-size: 11px;&quot;&gt;%c4Description%&lt;/font&gt;&lt;/font&gt;&lt;/div&gt;" id="AR0QgThomPJxbp-2TlTz-26">
          <mxCell style="rounded=1;whiteSpace=wrap;html=1;labelBackgroundColor=none;fillColor=#0050ef;fontColor=#ffffff;align=center;arcSize=10;strokeColor=#001DBC;metaEdit=1;resizable=0;points=[[0.25,0,0],[0.5,0,0],[0.75,0,0],[1,0.25,0],[1,0.5,0],[1,0.75,0],[0.75,1,0],[0.5,1,0],[0.25,1,0],[0,0.75,0],[0,0.5,0],[0,0.25,0]];shadow=0;glass=0;labelBorderColor=none;fontSize=11;fillStyle=auto;" parent="AR0QgThomPJxbp-2TlTz-1" vertex="1">
            <mxGeometry x="-200" y="330" width="240" height="120" as="geometry" />
          </mxCell>
        </object>
        <mxCell id="AR0QgThomPJxbp-2TlTz-27" style="edgeStyle=orthogonalEdgeStyle;rounded=0;orthogonalLoop=1;jettySize=auto;html=1;entryX=0;entryY=0.5;entryDx=0;entryDy=0;entryPerimeter=0;dashed=1;labelBorderColor=none;fontSize=16;fontColor=#030303;" parent="AR0QgThomPJxbp-2TlTz-1" source="AR0QgThomPJxbp-2TlTz-29" target="AR0QgThomPJxbp-2TlTz-26" edge="1">
          <mxGeometry relative="1" as="geometry">
            <Array as="points">
              <mxPoint x="-340" y="-10" />
              <mxPoint x="-340" y="390" />
            </Array>
          </mxGeometry>
        </mxCell>
        <mxCell id="AR0QgThomPJxbp-2TlTz-28" style="edgeStyle=orthogonalEdgeStyle;rounded=0;orthogonalLoop=1;jettySize=auto;html=1;entryX=0;entryY=0.5;entryDx=0;entryDy=0;entryPerimeter=0;" parent="AR0QgThomPJxbp-2TlTz-1" source="AR0QgThomPJxbp-2TlTz-29" target="AR0QgThomPJxbp-2TlTz-26" edge="1">
          <mxGeometry relative="1" as="geometry">
            <Array as="points">
              <mxPoint x="-340" y="-10" />
              <mxPoint x="-340" y="390" />
            </Array>
          </mxGeometry>
        </mxCell>
        <object placeholders="1" c4Name="Cliente" c4Type="Usuário" c4Description="Consultar as informações das manutenções agendadas, em andamento e finalizadas" label="&lt;font style=&quot;font-size: 14px;&quot;&gt;&lt;b style=&quot;font-size: 14px;&quot;&gt;%c4Name%&lt;/b&gt;&lt;/font&gt;&lt;div style=&quot;font-size: 14px;&quot;&gt;[%c4Type%]&lt;/div&gt;&lt;br style=&quot;font-size: 14px;&quot;&gt;&lt;div style=&quot;font-size: 14px;&quot;&gt;&lt;font style=&quot;font-size: 14px;&quot;&gt;&lt;font color=&quot;#cccccc&quot; style=&quot;font-size: 14px;&quot;&gt;%c4Description%&lt;/font&gt;&lt;/font&gt;&lt;/div&gt;" id="AR0QgThomPJxbp-2TlTz-29">
          <mxCell style="html=1;fontSize=14;dashed=0;whiteSpace=wrap;fillColor=#0050ef;strokeColor=#001DBC;fontColor=#ffffff;shape=mxgraph.c4.person2;align=center;metaEdit=1;points=[[0.5,0,0],[1,0.5,0],[1,0.75,0],[0.75,1,0],[0.5,1,0],[0.25,1,0],[0,0.75,0],[0,0.5,0]];resizable=0;rounded=1;shadow=0;glass=0;labelBackgroundColor=none;labelBorderColor=none;fillStyle=auto;" parent="AR0QgThomPJxbp-2TlTz-1" vertex="1">
            <mxGeometry x="-450" y="-90" width="200" height="180" as="geometry" />
          </mxCell>
        </object>
        <mxCell id="AR0QgThomPJxbp-2TlTz-30" value="Monitora&amp;nbsp;informações&lt;br style=&quot;border-color: var(--border-color);&quot;&gt;&lt;span style=&quot;background-color: rgb(255, 255, 255);&quot;&gt;referente aos chamados históricos e agendados,&lt;/span&gt;&lt;br style=&quot;border-color: var(--border-color);&quot;&gt;&lt;span style=&quot;background-color: rgb(255, 255, 255);&quot;&gt;Solicita ordem de Serviço/Cotação de atendimento técnico.&amp;nbsp;&lt;/span&gt;" style="text;html=1;align=center;verticalAlign=middle;resizable=0;points=[];autosize=1;strokeColor=none;fillColor=none;fontSize=16;fontColor=#030303;fontStyle=1" parent="AR0QgThomPJxbp-2TlTz-1" vertex="1">
          <mxGeometry x="-520" y="130" width="480" height="70" as="geometry" />
        </mxCell>
      </root>
    </mxGraphModel>
  </diagram>
  <diagram id="UWa4NVmcshS2ISryzSAY" name="Página-4">
    <mxGraphModel dx="880" dy="476" grid="1" gridSize="10" guides="1" tooltips="1" connect="1" arrows="1" fold="1" page="1" pageScale="1" pageWidth="1169" pageHeight="827" math="0" shadow="0">
      <root>
        <mxCell id="0" />
        <mxCell id="1" parent="0" />
        <mxCell id="gLDIzo4pi_rhtGdFr_Pa-1" value="" style="ellipse;whiteSpace=wrap;html=1;" vertex="1" parent="1">
          <mxGeometry x="400" y="170" width="120" height="80" as="geometry" />
        </mxCell>
      </root>
    </mxGraphModel>
  </diagram>
</mxfile>
